<?xml version="1.0" standalone="no"?>
<!DOCTYPE svg PUBLIC "-//W3C//DTD SVG 20010904//EN"
 "http://www.w3.org/TR/2001/REC-SVG-20010904/DTD/svg10.dtd">
<svg version="1.0" xmlns="http://www.w3.org/2000/svg"
 width="2000.000000pt" height="1994.000000pt" viewBox="0 0 2000.000000 1994.000000"
 preserveAspectRatio="xMidYMid meet">

<g transform="translate(0.000000,1994.000000) scale(0.100000,-0.100000)"
fill="#000000" stroke="none">
<path d="M2870 15240 l0 -4510 3330 0 3330 0 0 1175 0 1175 1180 0 1180 0 0
3335 0 3335 -4510 0 -4510 0 0 -4510z m4501 722 l1214 -1837 3 1837 2 1838
305 0 305 0 0 -2330 0 -2330 -302 2 -303 3 -1215 1843 -1215 1842 -5 -1842 -5
-1843 -302 -3 -303 -2 0 2330 0 2330 304 0 304 0 1213 -1838z"/>
<path d="M4671 6699 c-209 -16 -389 -66 -586 -164 -304 -151 -535 -384 -695
-704 -39 -79 -104 -272 -124 -371 -55 -274 -43 -593 31 -850 101 -349 325
-659 618 -855 283 -189 592 -274 955 -262 271 8 470 59 700 178 149 77 262
162 386 292 281 291 420 637 431 1075 10 334 -40 572 -174 834 -75 147 -160
264 -278 383 -279 280 -634 430 -1060 448 -55 2 -147 1 -204 -4z m385 -374
c447 -86 768 -409 881 -885 34 -145 43 -414 19 -580 -41 -281 -168 -537 -355
-713 -131 -124 -298 -216 -478 -264 -91 -25 -113 -27 -308 -27 -234 -1 -292 9
-462 78 -460 188 -729 665 -700 1241 12 224 55 395 148 575 168 327 479 543
850 590 99 12 305 5 405 -15z"/>
<path d="M210 5095 l0 -1575 205 0 205 0 2 1249 3 1249 824 -1249 823 -1249
204 0 204 0 0 1575 0 1575 -205 0 -205 0 -2 -1244 -3 -1245 -820 1242 -821
1242 -207 3 -207 2 0 -1575z"/>
<path d="M6940 5095 l0 -1575 205 0 205 0 0 645 0 645 248 -2 247 -3 375 -642
374 -643 244 0 c191 0 243 3 239 13 -2 6 -179 302 -391 656 -213 354 -385 645
-383 648 2 2 37 13 78 24 41 11 124 44 185 74 179 87 307 220 394 409 20 44
44 108 53 141 53 197 39 439 -37 627 -101 249 -334 436 -640 513 -155 39 -266
45 -846 45 l-550 0 0 -1575z m1273 1207 c282 -78 421 -285 404 -602 -3 -58
-13 -130 -22 -160 -44 -144 -141 -263 -266 -324 -140 -68 -151 -69 -586 -74
l-393 -3 0 596 0 597 393 -4 c363 -4 398 -6 470 -26z"/>
<path d="M9490 6500 l0 -170 430 0 430 0 0 -1405 0 -1405 205 0 205 0 0 1405
0 1405 430 0 430 0 0 170 0 170 -1065 0 -1065 0 0 -170z"/>
<path d="M12130 5095 l0 -1575 205 0 205 0 0 715 0 715 800 0 800 0 0 -715 0
-715 205 0 205 0 0 1575 0 1575 -205 0 -205 0 0 -690 0 -690 -800 0 -800 0 0
690 0 690 -205 0 -205 0 0 -1575z"/>
<path d="M11035 2853 c-583 -73 -1018 -506 -1102 -1098 -20 -140 -13 -370 15
-500 85 -390 320 -699 667 -873 169 -85 317 -121 535 -129 533 -20 965 218
1182 652 20 39 39 80 42 93 l7 22 -198 0 -198 0 -28 -53 c-103 -196 -282 -338
-502 -399 -68 -18 -106 -22 -255 -22 -206 0 -277 15 -427 89 -339 167 -527
522 -510 965 12 307 100 526 286 710 123 122 262 198 433 237 111 25 337 23
450 -5 235 -58 422 -204 527 -409 l21 -43 200 0 200 0 -10 26 c-21 54 -83 171
-122 229 -180 266 -480 449 -820 499 -95 14 -312 19 -393 9z"/>
<path d="M13870 2849 c-749 -93 -1228 -774 -1094 -1556 77 -452 397 -829 828
-978 258 -88 596 -90 857 -5 430 141 743 500 836 958 13 66 18 136 18 287 0
214 -10 286 -61 443 -142 433 -504 750 -957 837 -101 20 -326 27 -427 14z
m410 -309 c110 -27 268 -104 351 -173 181 -151 296 -361 334 -615 78 -517
-142 -976 -549 -1144 -98 -40 -173 -58 -285 -67 -560 -49 -984 321 -1030 899
-30 368 72 669 302 886 138 132 294 203 522 238 65 10 272 -4 355 -24z"/>
<path d="M15760 1550 l0 -1282 518 5 c555 5 579 7 777 63 114 32 226 80 329
141 111 66 283 239 350 351 142 240 204 533 178 846 -52 624 -417 1019 -1047
1133 -73 13 -186 17 -597 20 l-508 5 0 -1282z m1062 987 c445 -86 700 -380
749 -860 19 -194 -10 -430 -72 -587 -106 -263 -319 -440 -617 -512 -77 -19
-126 -21 -434 -25 l-348 -5 0 1007 0 1007 323 -5 c224 -4 345 -10 399 -20z"/>
<path d="M18360 1550 l0 -1280 690 0 691 0 -3 138 -3 137 -523 3 -522 2 2 438
3 437 468 3 467 2 0 135 0 135 -470 0 -470 0 2 428 3 427 523 3 522 2 0 135 0
135 -690 0 -690 0 0 -1280z"/>
</g>
</svg>
